<svg xmlns="http://www.w3.org/2000/svg" xmlns:xlink="http://www.w3.org/1999/xlink" width="21" height="21" version="1.1" viewBox="0 0 21 21"><title>Group 2</title><desc>Created with Sketch.</desc><g id="Symbols" fill="none" fill-rule="evenodd" stroke="none" stroke-width="1"><g id="Modern-dashboard-/-leftmenu" transform="translate(-39.000000, -28.000000)"><g id="Group" transform="translate(39.000000, 28.000000)"><g id="Group-2"><path id="Rectangle" fill="#00E196" d="M0,0 L10.5,0 C16.2989899,-1.06525716e-15 21,4.70101013 21,10.5 L21,10.5 C21,16.2989899 16.2989899,21 10.5,21 L0,21 L0,0 Z"/><g id="Group-10" transform="translate(6.500000, 6.000000) scale(-1, 1) translate(-6.500000, -6.000000)"><rect id="Rectangle" width="6" height="6" x="0" y="0" fill="#0400AC" transform="translate(3.000000, 3.000000) scale(-1, 1) translate(-3.000000, -3.000000)"/><rect id="Rectangle-Copy-58" width="7" height="6" x="6" y="6" fill="#0400AC" transform="translate(9.500000, 9.000000) scale(-1, 1) translate(-9.500000, -9.000000)"/><rect id="Rectangle-Copy-59" width="7" height="6" x="6" y="0" fill="#FF0283" transform="translate(9.500000, 3.000000) scale(-1, 1) translate(-9.500000, -3.000000)"/></g></g></g></g></g></svg>