<svg xmlns="http://www.w3.org/2000/svg" xmlns:xlink="http://www.w3.org/1999/xlink" id="Layer_1" x="0" y="0" version="1.1" viewBox="0 0 28.2 28.6" xml:space="preserve" style="enable-background:new 0 0 28.2 28.6"><style type="text/css">.st0{fill:url(#SVGID_1_)}</style><g><linearGradient id="SVGID_1_" x1="-14.343" x2="198.295" y1="-1258.797" y2="-1258.797" gradientTransform="matrix(1 0 0 -1 0 -1244.5182)" gradientUnits="userSpaceOnUse"><stop offset="0" style="stop-color:#0fb"/><stop offset="1" style="stop-color:#05bdba"/></linearGradient><path d="M27,9.8l-8-1.2l-3.5-7.6C15.3,0.4,14.8,0,14.1,0c-0.5,0-1.1,0.4-1.4,0.9L9.1,8.5L1.3,9.8 c-0.5,0-1.1,0.5-1.2,1.1s0,1.2,0.4,1.6l5.9,5.9l-1.4,8.3c-0.2,0.5,0.2,1.2,0.5,1.6c0.5,0.4,1.1,0.4,1.6,0.2l7.1-3.9l7.1,3.9 c0.2,0.2,0.5,0.2,0.7,0.2c0.4,0,0.7-0.2,0.9-0.4c0.5-0.4,0.7-0.9,0.5-1.6l-1.4-8.3l5.9-5.9c0.4-0.4,0.5-1.1,0.4-1.6 C28.1,10.1,27.6,9.8,27,9.8z" class="st0"/></g></svg>